<mxfile host="app.diagrams.net" modified="2024-04-14T23:23:45.756Z" agent="Mozilla/5.0 (Macintosh; Intel Mac OS X 10.15; rv:124.0) Gecko/20100101 Firefox/124.0" etag="xqpr8bxxCdRsQQX3g7yb" version="24.2.3" type="device">
  <diagram name="Page-1" id="sTEGeEx5r1Dqr6qPzx4S">
    <mxGraphModel dx="2284" dy="738" grid="1" gridSize="10" guides="1" tooltips="1" connect="1" arrows="1" fold="1" page="1" pageScale="1" pageWidth="850" pageHeight="1100" math="0" shadow="0">
      <root>
        <mxCell id="0" />
        <mxCell id="1" parent="0" />
        <mxCell id="TVdzVY3U9QGInJ92nrR7-1" value="&lt;div&gt;MediaPlayer&lt;/div&gt;" style="swimlane;fontStyle=0;childLayout=stackLayout;horizontal=1;startSize=26;fillColor=none;horizontalStack=0;resizeParent=1;resizeParentMax=0;resizeLast=0;collapsible=1;marginBottom=0;whiteSpace=wrap;html=1;" vertex="1" parent="1">
          <mxGeometry x="-190" y="297" width="340" height="78" as="geometry" />
        </mxCell>
        <mxCell id="TVdzVY3U9QGInJ92nrR7-4" value="&lt;div&gt;+ &amp;lt;&amp;lt;create&amp;gt;&amp;gt; createMediaPlayer(media: Media): MediaPlayer&lt;br&gt;&lt;/div&gt;" style="text;strokeColor=none;fillColor=none;align=left;verticalAlign=top;spacingLeft=4;spacingRight=4;overflow=hidden;rotatable=0;points=[[0,0.5],[1,0.5]];portConstraint=eastwest;whiteSpace=wrap;html=1;" vertex="1" parent="TVdzVY3U9QGInJ92nrR7-1">
          <mxGeometry y="26" width="340" height="26" as="geometry" />
        </mxCell>
        <mxCell id="TVdzVY3U9QGInJ92nrR7-24" value="&lt;div&gt;+ play()&lt;/div&gt;" style="text;strokeColor=none;fillColor=none;align=left;verticalAlign=top;spacingLeft=4;spacingRight=4;overflow=hidden;rotatable=0;points=[[0,0.5],[1,0.5]];portConstraint=eastwest;whiteSpace=wrap;html=1;" vertex="1" parent="TVdzVY3U9QGInJ92nrR7-1">
          <mxGeometry y="52" width="340" height="26" as="geometry" />
        </mxCell>
        <mxCell id="TVdzVY3U9QGInJ92nrR7-9" value="&lt;div&gt;&amp;lt;&amp;lt;interface&amp;gt;&amp;gt;&lt;/div&gt;&lt;div&gt;Media&lt;br&gt;&lt;/div&gt;" style="swimlane;fontStyle=0;childLayout=stackLayout;horizontal=1;startSize=40;fillColor=none;horizontalStack=0;resizeParent=1;resizeParentMax=0;resizeLast=0;collapsible=1;marginBottom=0;whiteSpace=wrap;html=1;" vertex="1" parent="1">
          <mxGeometry x="280" y="303" width="110" height="66" as="geometry" />
        </mxCell>
        <mxCell id="TVdzVY3U9QGInJ92nrR7-11" value="+ play()" style="text;strokeColor=none;fillColor=none;align=left;verticalAlign=top;spacingLeft=4;spacingRight=4;overflow=hidden;rotatable=0;points=[[0,0.5],[1,0.5]];portConstraint=eastwest;whiteSpace=wrap;html=1;" vertex="1" parent="TVdzVY3U9QGInJ92nrR7-9">
          <mxGeometry y="40" width="110" height="26" as="geometry" />
        </mxCell>
        <mxCell id="TVdzVY3U9QGInJ92nrR7-13" value="" style="endArrow=open;endFill=1;endSize=12;html=1;rounded=0;exitX=1;exitY=0.5;exitDx=0;exitDy=0;entryX=0;entryY=0.5;entryDx=0;entryDy=0;" edge="1" parent="1" source="TVdzVY3U9QGInJ92nrR7-1" target="TVdzVY3U9QGInJ92nrR7-9">
          <mxGeometry width="160" relative="1" as="geometry">
            <mxPoint x="340" y="420" as="sourcePoint" />
            <mxPoint x="230" y="420" as="targetPoint" />
          </mxGeometry>
        </mxCell>
        <mxCell id="TVdzVY3U9QGInJ92nrR7-14" value="&lt;div&gt;media&lt;/div&gt;&lt;div&gt;1&lt;br&gt;&lt;/div&gt;" style="edgeLabel;html=1;align=center;verticalAlign=middle;resizable=0;points=[];" vertex="1" connectable="0" parent="TVdzVY3U9QGInJ92nrR7-13">
          <mxGeometry x="-0.0167" relative="1" as="geometry">
            <mxPoint as="offset" />
          </mxGeometry>
        </mxCell>
        <mxCell id="TVdzVY3U9QGInJ92nrR7-15" value="VideoFile" style="swimlane;fontStyle=0;childLayout=stackLayout;horizontal=1;startSize=26;fillColor=none;horizontalStack=0;resizeParent=1;resizeParentMax=0;resizeLast=0;collapsible=1;marginBottom=0;whiteSpace=wrap;html=1;" vertex="1" parent="1">
          <mxGeometry x="390" y="520" width="240" height="78" as="geometry" />
        </mxCell>
        <mxCell id="TVdzVY3U9QGInJ92nrR7-17" value="+ &amp;lt;&amp;lt;create&amp;gt;&amp;gt; createVideoFile(): VideoFile" style="text;strokeColor=none;fillColor=none;align=left;verticalAlign=top;spacingLeft=4;spacingRight=4;overflow=hidden;rotatable=0;points=[[0,0.5],[1,0.5]];portConstraint=eastwest;whiteSpace=wrap;html=1;" vertex="1" parent="TVdzVY3U9QGInJ92nrR7-15">
          <mxGeometry y="26" width="240" height="26" as="geometry" />
        </mxCell>
        <mxCell id="TVdzVY3U9QGInJ92nrR7-18" value="+ play()" style="text;strokeColor=none;fillColor=none;align=left;verticalAlign=top;spacingLeft=4;spacingRight=4;overflow=hidden;rotatable=0;points=[[0,0.5],[1,0.5]];portConstraint=eastwest;whiteSpace=wrap;html=1;" vertex="1" parent="TVdzVY3U9QGInJ92nrR7-15">
          <mxGeometry y="52" width="240" height="26" as="geometry" />
        </mxCell>
        <mxCell id="TVdzVY3U9QGInJ92nrR7-19" value="Audio" style="swimlane;fontStyle=0;childLayout=stackLayout;horizontal=1;startSize=26;fillColor=none;horizontalStack=0;resizeParent=1;resizeParentMax=0;resizeLast=0;collapsible=1;marginBottom=0;whiteSpace=wrap;html=1;" vertex="1" parent="1">
          <mxGeometry x="80" y="520" width="200" height="78" as="geometry" />
        </mxCell>
        <mxCell id="TVdzVY3U9QGInJ92nrR7-21" value="+ &amp;lt;&amp;lt;create&amp;gt;&amp;gt; createAudio(): Audio" style="text;strokeColor=none;fillColor=none;align=left;verticalAlign=top;spacingLeft=4;spacingRight=4;overflow=hidden;rotatable=0;points=[[0,0.5],[1,0.5]];portConstraint=eastwest;whiteSpace=wrap;html=1;" vertex="1" parent="TVdzVY3U9QGInJ92nrR7-19">
          <mxGeometry y="26" width="200" height="26" as="geometry" />
        </mxCell>
        <mxCell id="TVdzVY3U9QGInJ92nrR7-22" value="+ play()" style="text;strokeColor=none;fillColor=none;align=left;verticalAlign=top;spacingLeft=4;spacingRight=4;overflow=hidden;rotatable=0;points=[[0,0.5],[1,0.5]];portConstraint=eastwest;whiteSpace=wrap;html=1;" vertex="1" parent="TVdzVY3U9QGInJ92nrR7-19">
          <mxGeometry y="52" width="200" height="26" as="geometry" />
        </mxCell>
        <mxCell id="TVdzVY3U9QGInJ92nrR7-23" value="" style="endArrow=block;dashed=1;endFill=0;endSize=12;html=1;rounded=0;exitX=0.5;exitY=0;exitDx=0;exitDy=0;entryX=0;entryY=1;entryDx=0;entryDy=0;" edge="1" parent="1" source="TVdzVY3U9QGInJ92nrR7-19" target="TVdzVY3U9QGInJ92nrR7-9">
          <mxGeometry width="160" relative="1" as="geometry">
            <mxPoint x="340" y="420" as="sourcePoint" />
            <mxPoint x="500" y="420" as="targetPoint" />
          </mxGeometry>
        </mxCell>
        <mxCell id="TVdzVY3U9QGInJ92nrR7-25" value="" style="endArrow=block;dashed=1;endFill=0;endSize=12;html=1;rounded=0;exitX=0.5;exitY=0;exitDx=0;exitDy=0;entryX=1;entryY=1;entryDx=0;entryDy=0;" edge="1" parent="1" source="TVdzVY3U9QGInJ92nrR7-15" target="TVdzVY3U9QGInJ92nrR7-9">
          <mxGeometry width="160" relative="1" as="geometry">
            <mxPoint x="340" y="420" as="sourcePoint" />
            <mxPoint x="500" y="420" as="targetPoint" />
          </mxGeometry>
        </mxCell>
        <mxCell id="TVdzVY3U9QGInJ92nrR7-26" value="&lt;blockquote&gt;VideoStreamAdapter&lt;/blockquote&gt;" style="swimlane;fontStyle=0;childLayout=stackLayout;horizontal=1;startSize=26;fillColor=none;horizontalStack=0;resizeParent=1;resizeParentMax=0;resizeLast=0;collapsible=1;marginBottom=0;whiteSpace=wrap;html=1;" vertex="1" parent="1">
          <mxGeometry x="80" y="666" width="505" height="78" as="geometry" />
        </mxCell>
        <mxCell id="TVdzVY3U9QGInJ92nrR7-27" value="+ &amp;lt;&amp;lt;create&amp;gt;&amp;gt; createVideoStreamAdapter(videoStream: VideoStream): VideoStreamAdapter" style="text;strokeColor=none;fillColor=none;align=left;verticalAlign=top;spacingLeft=4;spacingRight=4;overflow=hidden;rotatable=0;points=[[0,0.5],[1,0.5]];portConstraint=eastwest;whiteSpace=wrap;html=1;" vertex="1" parent="TVdzVY3U9QGInJ92nrR7-26">
          <mxGeometry y="26" width="505" height="26" as="geometry" />
        </mxCell>
        <mxCell id="TVdzVY3U9QGInJ92nrR7-28" value="+ play()" style="text;strokeColor=none;fillColor=none;align=left;verticalAlign=top;spacingLeft=4;spacingRight=4;overflow=hidden;rotatable=0;points=[[0,0.5],[1,0.5]];portConstraint=eastwest;whiteSpace=wrap;html=1;" vertex="1" parent="TVdzVY3U9QGInJ92nrR7-26">
          <mxGeometry y="52" width="505" height="26" as="geometry" />
        </mxCell>
        <mxCell id="TVdzVY3U9QGInJ92nrR7-30" value="VideoStream" style="swimlane;fontStyle=0;childLayout=stackLayout;horizontal=1;startSize=26;fillColor=none;horizontalStack=0;resizeParent=1;resizeParentMax=0;resizeLast=0;collapsible=1;marginBottom=0;whiteSpace=wrap;html=1;" vertex="1" parent="1">
          <mxGeometry x="720" y="666" width="280" height="78" as="geometry" />
        </mxCell>
        <mxCell id="TVdzVY3U9QGInJ92nrR7-31" value="+ &amp;lt;&amp;lt;create&amp;gt;&amp;gt; createVideoStream(): VideoStream" style="text;strokeColor=none;fillColor=none;align=left;verticalAlign=top;spacingLeft=4;spacingRight=4;overflow=hidden;rotatable=0;points=[[0,0.5],[1,0.5]];portConstraint=eastwest;whiteSpace=wrap;html=1;" vertex="1" parent="TVdzVY3U9QGInJ92nrR7-30">
          <mxGeometry y="26" width="280" height="26" as="geometry" />
        </mxCell>
        <mxCell id="TVdzVY3U9QGInJ92nrR7-32" value="+ reproduce()" style="text;strokeColor=none;fillColor=none;align=left;verticalAlign=top;spacingLeft=4;spacingRight=4;overflow=hidden;rotatable=0;points=[[0,0.5],[1,0.5]];portConstraint=eastwest;whiteSpace=wrap;html=1;" vertex="1" parent="TVdzVY3U9QGInJ92nrR7-30">
          <mxGeometry y="52" width="280" height="26" as="geometry" />
        </mxCell>
        <mxCell id="TVdzVY3U9QGInJ92nrR7-34" value="" style="endArrow=open;endFill=1;endSize=12;html=1;rounded=0;exitX=1;exitY=0.5;exitDx=0;exitDy=0;entryX=0;entryY=0.5;entryDx=0;entryDy=0;" edge="1" parent="1" source="TVdzVY3U9QGInJ92nrR7-26" target="TVdzVY3U9QGInJ92nrR7-31">
          <mxGeometry width="160" relative="1" as="geometry">
            <mxPoint x="620" y="620" as="sourcePoint" />
            <mxPoint x="780" y="620" as="targetPoint" />
          </mxGeometry>
        </mxCell>
        <mxCell id="TVdzVY3U9QGInJ92nrR7-35" value="&lt;div&gt;videoStream&lt;/div&gt;&lt;div&gt;1&lt;br&gt;&lt;/div&gt;" style="edgeLabel;html=1;align=center;verticalAlign=middle;resizable=0;points=[];" vertex="1" connectable="0" parent="TVdzVY3U9QGInJ92nrR7-34">
          <mxGeometry x="-0.0128" relative="1" as="geometry">
            <mxPoint as="offset" />
          </mxGeometry>
        </mxCell>
        <mxCell id="TVdzVY3U9QGInJ92nrR7-36" value="" style="endArrow=block;dashed=1;endFill=0;endSize=12;html=1;rounded=0;exitX=0.5;exitY=0;exitDx=0;exitDy=0;entryX=0.5;entryY=1;entryDx=0;entryDy=0;" edge="1" parent="1" source="TVdzVY3U9QGInJ92nrR7-26" target="TVdzVY3U9QGInJ92nrR7-9">
          <mxGeometry width="160" relative="1" as="geometry">
            <mxPoint x="340" y="460" as="sourcePoint" />
            <mxPoint x="500" y="460" as="targetPoint" />
          </mxGeometry>
        </mxCell>
      </root>
    </mxGraphModel>
  </diagram>
</mxfile>
